<?xml version="1.0" standalone="no"?>
<!DOCTYPE svg PUBLIC "-//W3C//DTD SVG 20010904//EN"
 "http://www.w3.org/TR/2001/REC-SVG-20010904/DTD/svg10.dtd">
<svg version="1.0" xmlns="http://www.w3.org/2000/svg"
 width="1680.000000pt" height="1668.000000pt" viewBox="0 0 1680.000000 1668.000000"
 preserveAspectRatio="xMidYMid meet">

<g transform="translate(0.000000,1668.000000) scale(0.100000,-0.100000)"
fill="#000000" stroke="none">
<path d="M8270 14407 c-3 -3 -61 -8 -130 -12 -189 -9 -385 -47 -629 -121 -79
-24 -148 -44 -153 -44 -15 0 -329 -147 -338 -159 -3 -3 -11 -7 -18 -9 -17 -3
-206 -129 -287 -191 -81 -61 -253 -229 -330 -321 -193 -232 -364 -549 -470
-870 -35 -107 -73 -226 -84 -265 -17 -63 -23 -89 -37 -175 -3 -14 -11 -59 -19
-100 -99 -508 -124 -1191 -59 -1635 39 -274 140 -675 203 -810 5 -11 21 -51
36 -90 73 -194 176 -393 330 -634 101 -158 310 -406 464 -553 88 -83 328 -276
389 -313 10 -5 19 -13 22 -16 15 -16 333 -190 338 -184 3 3 16 -2 29 -11 58
-37 378 -149 456 -159 23 -3 49 -7 57 -10 74 -23 281 -47 445 -52 213 -6 359
5 555 43 69 13 134 26 145 28 73 13 239 69 368 125 26 11 49 20 52 21 9 0 162
78 216 111 30 18 79 46 109 64 31 17 64 39 75 47 11 9 76 58 145 109 171 127
422 379 565 568 61 80 121 164 135 187 14 23 50 82 80 130 160 256 380 792
415 1014 3 19 14 76 25 126 67 313 84 522 77 947 -6 402 -28 628 -92 957 -8
41 -17 91 -19 110 -18 147 -157 560 -258 768 -162 334 -380 615 -636 822 -154
125 -398 269 -577 340 -252 100 -606 188 -832 206 -97 7 -757 17 -763 11z"/>
<path d="M6080 7423 c-202 -103 -425 -219 -590 -306 -130 -68 -357 -186 -525
-272 -77 -39 -151 -78 -165 -87 -26 -16 -359 -189 -560 -291 -158 -80 -351
-187 -386 -215 -86 -67 -170 -188 -238 -342 -13 -30 -45 -102 -71 -160 -26
-58 -67 -152 -92 -210 -24 -58 -66 -152 -93 -210 -26 -58 -58 -130 -70 -160
-12 -30 -45 -102 -72 -160 -28 -58 -63 -139 -80 -180 -16 -41 -47 -111 -68
-155 -72 -152 -98 -214 -92 -219 3 -3 0 -6 -6 -6 -7 0 -12 -4 -12 -9 0 -11
-251 -581 -295 -669 -14 -29 -36 -81 -49 -115 -13 -34 -41 -100 -64 -147 -57
-121 -88 -191 -97 -220 -7 -24 -19 -50 -65 -139 -11 -21 -20 -43 -20 -48 0
-30 390 -428 660 -674 236 -215 582 -486 865 -678 101 -68 423 -271 430 -271
2 0 38 -20 79 -45 42 -25 79 -45 81 -45 3 0 22 -11 43 -23 112 -71 556 -285
807 -389 250 -104 718 -264 955 -327 247 -64 687 -160 810 -175 25 -3 95 -12
155 -21 392 -56 720 -79 1150 -79 885 0 1658 119 2490 386 407 130 846 314
1230 515 505 265 872 504 1317 855 198 157 415 353 682 614 147 145 378 398
513 564 l23 28 -24 53 c-13 30 -47 102 -75 162 -28 59 -51 112 -51 117 0 6 -4
18 -9 28 -19 36 -90 191 -131 287 -23 55 -60 137 -81 182 -22 46 -39 85 -39
87 0 3 -17 42 -39 88 -21 46 -48 108 -61 138 -12 30 -45 102 -73 160 -27 58
-60 134 -74 168 -13 35 -46 112 -74 170 -28 59 -71 157 -96 217 -25 61 -48
115 -53 120 -12 15 -110 242 -110 254 0 6 -5 11 -11 11 -5 0 -8 4 -5 8 3 5 -1
20 -8 34 -8 14 -39 84 -71 155 -131 297 -167 356 -267 447 -52 47 -206 139
-358 213 -41 21 -131 67 -200 104 -69 37 -190 100 -270 141 -80 41 -206 106
-280 145 -74 38 -193 100 -265 138 -71 37 -204 106 -295 153 -91 48 -228 119
-305 159 -77 40 -194 101 -260 135 -259 135 -272 136 -405 33 -91 -70 -158
-114 -310 -201 -157 -91 -221 -123 -385 -196 -49 -22 -109 -48 -132 -59 -23
-10 -55 -21 -72 -24 -17 -3 -61 -16 -99 -30 -143 -52 -484 -139 -520 -134 -4
1 -9 1 -12 0 -6 -3 -12 -3 -230 -26 -131 -14 -217 -16 -420 -12 -140 3 -286
10 -325 16 -38 5 -98 12 -132 16 -128 11 -352 65 -551 132 -59 19 -112 36
-119 37 -7 1 -16 5 -19 9 -4 4 -14 7 -22 7 -16 0 -32 7 -182 75 -173 79 -275
128 -280 135 -3 3 -48 30 -100 60 -52 29 -128 76 -168 104 -41 28 -101 70
-135 93 -34 23 -68 48 -76 54 -7 7 -35 14 -60 17 -43 4 -61 -3 -241 -95z"/>
</g>
</svg>
